<svg xmlns="http://www.w3.org/2000/svg" width="26" height="26" viewBox="0 0 26 26" fill="none">
  <path d="M23.4001 19.0566C23.368 19.1558 22.8664 20.9365 21.634 22.7676C20.5673 24.3471 19.4643 25.9394 17.7222 25.9674C16.0091 25.998 15.4609 24.927 13.5049 24.927C11.5514 24.927 10.9373 25.9394 9.31826 25.998C7.64455 26.0678 6.35663 24.2726 5.2859 22.7008C3.09763 19.481 1.41271 13.5765 3.67245 9.61951C4.78428 7.63969 6.7827 6.38122 8.95892 6.34684C10.5989 6.31529 12.1592 7.47756 13.1553 7.47756C14.1786 7.47756 16.0661 6.0712 18.0574 6.28162C18.8911 6.31776 21.2232 6.63637 22.7258 8.85286C22.6075 8.93472 19.9354 10.5397 19.9652 13.8063C20.0053 17.7498 23.364 19.0432 23.4001 19.0566ZM16.7543 4.16923C17.6523 3.05438 18.2424 1.5219 18.0871 0C16.805 0.0511832 15.2429 0.866612 14.3145 1.97484C13.4937 2.94173 12.7701 4.49808 12.9719 6.00231C14.3965 6.09038 15.8612 5.24305 16.7543 4.16923Z" fill="#885FB1"/>
</svg>