<svg width="36" height="36" viewBox="0 0 36 36" fill="none" xmlns="http://www.w3.org/2000/svg">
<path opacity="1" d="M23.773 15.2877C24.0659 14.9948 24.0659 14.5199 23.773 14.227C23.4801 13.9341 23.0052 13.9341 22.7123 14.227L23.773 15.2877ZM14.227 22.7123C13.9341 23.0052 13.9341 23.4801 14.227 23.773C14.5199 24.0659 14.9948 24.0659 15.2877 23.773L14.227 22.7123ZM22.7123 23.773C23.0052 24.0659 23.4801 24.0659 23.773 23.773C24.0659 23.4801 24.0659 23.0052 23.773 22.7123L22.7123 23.773ZM15.2877 14.227C14.9948 13.9341 14.5199 13.9341 14.227 14.227C13.9341 14.5199 13.9341 14.9948 14.227 15.2877L15.2877 14.227ZM30.25 19C30.25 25.2132 25.2132 30.25 19 30.25V31.75C26.0416 31.75 31.75 26.0416 31.75 19H30.25ZM19 30.25C12.7868 30.25 7.75 25.2132 7.75 19H6.25C6.25 26.0416 11.9584 31.75 19 31.75V30.25ZM7.75 19C7.75 12.7868 12.7868 7.75 19 7.75V6.25C11.9584 6.25 6.25 11.9584 6.25 19H7.75ZM19 7.75C25.2132 7.75 30.25 12.7868 30.25 19H31.75C31.75 11.9584 26.0416 6.25 19 6.25V7.75ZM22.7123 14.227L18.4697 18.4697L19.5303 19.5303L23.773 15.2877L22.7123 14.227ZM18.4697 18.4697L14.227 22.7123L15.2877 23.773L19.5303 19.5303L18.4697 18.4697ZM23.773 22.7123L19.5303 18.4697L18.4697 19.5303L22.7123 23.773L23.773 22.7123ZM19.5303 18.4697L15.2877 14.227L14.227 15.2877L18.4697 19.5303L19.5303 18.4697Z" fill="white"/>
</svg>
