<svg xmlns="http://www.w3.org/2000/svg" width="40" height="40" viewBox="0 0 40 40" fill="none">
  <path d="M6.34467 31.6572C6.05178 31.9501 6.05178 32.4249 6.34467 32.7178C6.63756 33.0107 7.11244 33.0107 7.40533 32.7178L6.34467 31.6572ZM14.375 24.6875L14.9053 24.1572C14.6124 23.8643 14.1376 23.8643 13.8447 24.1572L14.375 24.6875ZM18.125 28.4375L17.5947 28.9678C17.8876 29.2607 18.3624 29.2607 18.6553 28.9678L18.125 28.4375ZM26.5625 20L27.0928 19.4697C26.7999 19.1768 26.3251 19.1768 26.0322 19.4697L26.5625 20ZM33.5322 28.0303C33.8251 28.3232 34.2999 28.3232 34.5928 28.0303C34.8857 27.7374 34.8857 27.2626 34.5928 26.9697L33.5322 28.0303ZM7.40533 32.7178L14.9053 25.2178L13.8447 24.1572L6.34467 31.6572L7.40533 32.7178ZM13.8447 25.2178L17.5947 28.9678L18.6553 27.9072L14.9053 24.1572L13.8447 25.2178ZM18.6553 28.9678L27.0928 20.5303L26.0322 19.4697L17.5947 27.9072L18.6553 28.9678ZM26.0322 20.5303L33.5322 28.0303L34.5928 26.9697L27.0928 19.4697L26.0322 20.5303ZM10.625 5.75H29.375V4.25H10.625V5.75ZM34.25 10.625V29.375H35.75V10.625H34.25ZM29.375 34.25H10.625V35.75H29.375V34.25ZM5.75 29.375V10.625H4.25V29.375H5.75ZM10.625 34.25C7.93261 34.25 5.75 32.0674 5.75 29.375H4.25C4.25 32.8958 7.10418 35.75 10.625 35.75V34.25ZM34.25 29.375C34.25 32.0674 32.0674 34.25 29.375 34.25V35.75C32.8958 35.75 35.75 32.8958 35.75 29.375H34.25ZM29.375 5.75C32.0674 5.75 34.25 7.93261 34.25 10.625H35.75C35.75 7.10418 32.8958 4.25 29.375 4.25V5.75ZM10.625 4.25C7.10418 4.25 4.25 7.10418 4.25 10.625H5.75C5.75 7.93261 7.93261 5.75 10.625 5.75V4.25ZM15.5 13.4375C15.5 14.5766 14.5766 15.5 13.4375 15.5V17C15.405 17 17 15.405 17 13.4375H15.5ZM13.4375 15.5C12.2984 15.5 11.375 14.5766 11.375 13.4375H9.875C9.875 15.405 11.47 17 13.4375 17V15.5ZM11.375 13.4375C11.375 12.2984 12.2984 11.375 13.4375 11.375V9.875C11.47 9.875 9.875 11.47 9.875 13.4375H11.375ZM13.4375 11.375C14.5766 11.375 15.5 12.2984 15.5 13.4375H17C17 11.47 15.405 9.875 13.4375 9.875V11.375Z" fill="#707083"/>
</svg>