<svg xmlns="http://www.w3.org/2000/svg" width="20" height="20" viewBox="0 0 20 20" fill="none">
  <path d="M13.2659 8.55187C13.4612 8.35661 13.4612 8.04003 13.2659 7.84476C13.0707 7.6495 12.7541 7.6495 12.5588 7.84476L13.2659 8.55187ZM7.84476 12.5588C7.6495 12.7541 7.6495 13.0707 7.84476 13.2659C8.04002 13.4612 8.35661 13.4612 8.55187 13.2659L7.84476 12.5588ZM12.5588 13.2659C12.7541 13.4612 13.0707 13.4612 13.2659 13.2659C13.4612 13.0707 13.4612 12.7541 13.2659 12.5588L12.5588 13.2659ZM8.55187 7.84476C8.35661 7.6495 8.04002 7.6495 7.84476 7.84476C7.6495 8.04002 7.6495 8.35661 7.84476 8.55187L8.55187 7.84476ZM16.722 10.5553C16.722 13.9611 13.9611 16.722 10.5553 16.722V17.722C14.5134 17.722 17.722 14.5134 17.722 10.5553H16.722ZM10.5553 16.722C7.14958 16.722 4.38867 13.9611 4.38867 10.5553H3.38867C3.38867 14.5134 6.5973 17.722 10.5553 17.722V16.722ZM4.38867 10.5553C4.38867 7.14958 7.14958 4.38867 10.5553 4.38867V3.38867C6.5973 3.38867 3.38867 6.5973 3.38867 10.5553H4.38867ZM10.5553 4.38867C13.9611 4.38867 16.722 7.14958 16.722 10.5553H17.722C17.722 6.5973 14.5134 3.38867 10.5553 3.38867V4.38867ZM12.5588 7.84476L10.2018 10.2018L10.9089 10.9089L13.2659 8.55187L12.5588 7.84476ZM10.2018 10.2018L7.84476 12.5588L8.55187 13.2659L10.9089 10.9089L10.2018 10.2018ZM13.2659 12.5588L10.9089 10.2018L10.2018 10.9089L12.5588 13.2659L13.2659 12.5588ZM10.9089 10.2018L8.55187 7.84476L7.84476 8.55187L10.2018 10.9089L10.9089 10.2018Z" fill="#707083"/>
</svg>